# xmcd
#
# Track frame offsets: 
#        150
#        77664
#        137259
#        174478
#        211205
#        246845
#
# Disc length: 3566 seconds
#
# Revision: 0
# Processed by: cddbd v1.5.2PL0 Copyright (c) Steve Scherf et al.
# Submitted via: ExactAudioCopy v1.0b3
#
DISCID=440dec06
DTITLE=Börjesson and Karlén - Meditation
DYEAR=2009
DGENRE=New Age
TTITLE0=Uffe Börjesson - Avslappning
TTITLE1=Uffe Börjesson - Sväva
TTITLE2=Rey-Ove Karlén - Lugn
TTITLE3=Uffe Börjesson - Puls
TTITLE4=Rey-Ove Karlén - Harmoni
TTITLE5=Rey-Ove Karlén - Klarhet
EXTD=
EXTT0=
EXTT1=
EXTT2=
EXTT3=
EXTT4=
EXTT5=
PLAYORDER=
